<svg width="81" height="80" viewBox="0 0 81 80" fill="none" xmlns="http://www.w3.org/2000/svg">
<path id="Vector" d="M46.6407 43.5821L40.5 37.4414L34.3592 43.5821C32.6535 45.2878 32.6535 48.0597 34.3592 49.7654L40.5 55.9062L46.6407 49.7654C48.3464 48.0597 48.3464 45.2878 46.6407 43.5821ZM40.5 3.05176e-05C18.4104 3.05176e-05 0.5 17.9105 0.5 40C0.5 62.0895 18.4104 80 40.5 80C62.5895 80 80.4999 62.0895 80.4999 40C80.5426 17.9531 62.5895 3.05176e-05 40.5 3.05176e-05ZM69.8816 27.42L56.7473 53.6887L61.0543 61.791C61.6513 62.8998 61.4381 64.2644 60.5426 65.1599L57.1737 68.5287C56.065 69.6375 54.2313 69.6375 53.1225 68.5287L40.5 55.9062L27.8774 68.5287C26.7686 69.6375 24.9349 69.6375 23.8262 68.5287L20.4573 65.1599C19.5618 64.2644 19.3486 62.8998 19.9456 61.791L24.2526 53.6887L11.1183 27.42C10.564 26.3113 10.7772 24.9893 11.6727 24.1365L17.387 18.3795C18.4957 17.2708 20.3294 17.2708 21.4381 18.3795L40.5 37.4414L59.5618 18.3795C60.6705 17.2708 62.5042 17.2708 63.6129 18.3795L69.3272 24.0938C70.2227 24.9893 70.436 26.3113 69.8816 27.42ZM46.6407 43.5821L40.5 37.4414L34.3592 43.5821C32.6535 45.2878 32.6535 48.0597 34.3592 49.7654L40.5 55.9062L46.6407 49.7654C48.3464 48.0597 48.3464 45.2878 46.6407 43.5821Z" fill="#8759FF"/>
</svg>
