<svg width="14" height="14" viewBox="0 0 14 14" fill="none" xmlns="http://www.w3.org/2000/svg">
<g id="Aptos_mark_BLK 1" clip-path="url(#clip0_1246_10538)">
<path id="Vector" d="M10.8379 4.81972H9.65073C9.51241 4.81972 9.38081 4.76036 9.28925 4.65704L8.80765 4.113C8.73597 4.0318 8.63265 3.9856 8.52457 3.9856C8.41649 3.9856 8.31317 4.03208 8.24149 4.113L7.82849 4.57976C7.69325 4.73236 7.49921 4.82 7.29537 4.82H0.796852C0.611772 5.34752 0.491092 5.90472 0.442932 6.48264H6.57773C6.68553 6.48264 6.78885 6.43868 6.86333 6.36084L7.43453 5.76472C7.50593 5.69024 7.60449 5.64824 7.70753 5.64824H7.73105C7.83941 5.64824 7.94245 5.69472 8.01413 5.77592L8.49545 6.31996C8.58701 6.42356 8.71861 6.48264 8.85693 6.48264H13.8645C13.8163 5.90444 13.6956 5.34724 13.5105 4.82H10.8377L10.8379 4.81972Z" fill="white"/>
<path id="Vector_2" d="M4.15518 9.97893C4.26298 9.97893 4.3663 9.93497 4.44078 9.85713L5.01198 9.26101C5.08338 9.18653 5.18194 9.14453 5.28498 9.14453H5.3085C5.41686 9.14453 5.5199 9.19101 5.59158 9.27193L6.0729 9.81597C6.16446 9.91957 6.29606 9.97865 6.43438 9.97865H13.2205C13.4747 9.45337 13.6609 8.88973 13.7718 8.29921H7.25814C7.11982 8.29921 6.98822 8.23985 6.89666 8.13653L6.41534 7.59249C6.34366 7.51129 6.24034 7.46509 6.13226 7.46509C6.02418 7.46509 5.92086 7.51157 5.84918 7.59249L5.43618 8.05925C5.30094 8.21185 5.1069 8.29949 4.90278 8.29949H0.535339C0.646219 8.89001 0.832699 9.45365 1.08666 9.97893H4.15518Z" fill="white"/>
<path id="Vector_3" d="M8.96951 3.00274C9.07731 3.00274 9.18063 2.95878 9.25511 2.88094L9.82631 2.28482C9.89771 2.21034 9.99627 2.16834 10.0993 2.16834H10.1228C10.2312 2.16834 10.3342 2.21482 10.4059 2.29602L10.8872 2.84006C10.9788 2.94366 11.1104 3.00274 11.2487 3.00274H12.5392C11.3103 1.36922 9.35563 0.3125 7.15371 0.3125C4.95179 0.3125 2.99711 1.36922 1.76819 3.00274H8.96951Z" fill="white"/>
<path id="Vector_4" d="M6.37756 11.6432H4.61272C4.4744 11.6432 4.3428 11.5838 4.25124 11.4805L3.76992 10.9365C3.69824 10.8553 3.59492 10.8091 3.48684 10.8091C3.37876 10.8091 3.27544 10.8556 3.20376 10.9365L2.79076 11.4032C2.65552 11.5558 2.46148 11.6435 2.25736 11.6435H2.22992C3.4594 12.9609 5.21024 13.7855 7.15428 13.7855C9.09832 13.7855 10.8489 12.9609 12.0786 11.6435H6.37756V11.6432Z" fill="white"/>
</g>
<defs>
<clipPath id="clip0_1246_10538">
<rect width="14" height="14" fill="white"/>
</clipPath>
</defs>
</svg>
