<svg width="14" height="15" viewBox="0 0 14 15" fill="none" xmlns="http://www.w3.org/2000/svg">
<g id="Aptos_mark_BLK 1" clip-path="url(#clip0_929_6988)">
<path id="Vector" d="M10.8384 5.31972H9.65116C9.51284 5.31972 9.38124 5.26036 9.28968 5.15704L8.80808 4.613C8.7364 4.5318 8.63308 4.4856 8.525 4.4856C8.41692 4.4856 8.3136 4.53208 8.24192 4.613L7.82892 5.07976C7.69368 5.23236 7.49964 5.32 7.2958 5.32H0.797279C0.612199 5.84752 0.491519 6.40472 0.443359 6.98264H6.57816C6.68596 6.98264 6.78928 6.93868 6.86376 6.86084L7.43496 6.26472C7.50636 6.19024 7.60492 6.14824 7.70796 6.14824H7.73148C7.83984 6.14824 7.94288 6.19472 8.01456 6.27592L8.49588 6.81996C8.58744 6.92356 8.71904 6.98264 8.85736 6.98264H13.8649C13.8167 6.40444 13.696 5.84724 13.511 5.32H10.8381L10.8384 5.31972Z" fill="#5D5F65"/>
<path id="Vector_2" d="M4.155 10.4789C4.2628 10.4789 4.36612 10.435 4.4406 10.3571L5.0118 9.76101C5.0832 9.68653 5.18176 9.64453 5.2848 9.64453H5.30832C5.41668 9.64453 5.51972 9.69101 5.5914 9.77193L6.07272 10.316C6.16428 10.4196 6.29588 10.4786 6.4342 10.4786H13.2203C13.4745 9.95337 13.6607 9.38973 13.7716 8.79921H7.25796C7.11964 8.79921 6.98804 8.73985 6.89648 8.63653L6.41516 8.09249C6.34348 8.01129 6.24016 7.96509 6.13208 7.96509C6.024 7.96509 5.92068 8.01157 5.849 8.09249L5.436 8.55925C5.30076 8.71185 5.10672 8.79949 4.9026 8.79949H0.535156C0.646036 9.39001 0.832516 9.95365 1.08648 10.4789H4.155Z" fill="#5D5F65"/>
<path id="Vector_3" d="M8.96987 3.50274C9.07767 3.50274 9.181 3.45878 9.25548 3.38094L9.82668 2.78482C9.89808 2.71034 9.99664 2.66834 10.0997 2.66834H10.1232C10.2316 2.66834 10.3346 2.71482 10.4063 2.79602L10.8876 3.34006C10.9792 3.44366 11.1108 3.50274 11.2491 3.50274H12.5396C11.3107 1.86922 9.35599 0.8125 7.15407 0.8125C4.95215 0.8125 2.99747 1.86922 1.76855 3.50274H8.96987Z" fill="#5D5F65"/>
<path id="Vector_4" d="M6.37713 12.1432H4.61229C4.47397 12.1432 4.34237 12.0838 4.25081 11.9805L3.76949 11.4365C3.69781 11.3553 3.59449 11.3091 3.48641 11.3091C3.37833 11.3091 3.27501 11.3556 3.20333 11.4365L2.79033 11.9032C2.65509 12.0558 2.46105 12.1435 2.25693 12.1435H2.22949C3.45897 13.4609 5.20981 14.2855 7.15385 14.2855C9.09789 14.2855 10.8485 13.4609 12.0782 12.1435H6.37713V12.1432Z" fill="#5D5F65"/>
</g>
<defs>
<clipPath id="clip0_929_6988">
<rect width="14" height="14" fill="white" transform="translate(0 0.5)"/>
</clipPath>
</defs>
</svg>
