<svg width="18" height="18" viewBox="0 0 18 18" fill="none" xmlns="http://www.w3.org/2000/svg">
<g clip-path="url(#clip0_4385_12003)">
<path d="M13.1121 6.66372H11.8401C11.6919 6.66372 11.5509 6.60012 11.4528 6.48942L10.9368 5.90652C10.86 5.81952 10.7493 5.77002 10.6335 5.77002C10.5177 5.77002 10.407 5.81982 10.3302 5.90652L9.88771 6.40662C9.74281 6.57012 9.53491 6.66402 9.31651 6.66402H2.35381C2.15551 7.22922 2.02621 7.82622 1.97461 8.44542H8.54761C8.66311 8.44542 8.77381 8.39832 8.85361 8.31492L9.46561 7.67622C9.54211 7.59642 9.64771 7.55142 9.75811 7.55142H9.78331C9.89941 7.55142 10.0098 7.60122 10.0866 7.68822L10.6023 8.27112C10.7004 8.38212 10.8414 8.44542 10.9896 8.44542H16.3548C16.3032 7.82592 16.1739 7.22892 15.9756 6.66402H13.1118L13.1121 6.66372Z" fill="white"/>
<path d="M5.95201 12.1919C6.06751 12.1919 6.17821 12.1448 6.25801 12.0614L6.87001 11.4227C6.94651 11.3429 7.05211 11.2979 7.16251 11.2979H7.18771C7.30381 11.2979 7.41421 11.3477 7.49101 11.4344L8.00671 12.0173C8.10481 12.1283 8.24581 12.1916 8.39401 12.1916H15.6648C15.9372 11.6288 16.1367 11.0249 16.2555 10.3922H9.27661C9.12841 10.3922 8.98741 10.3286 8.88931 10.2179L8.37361 9.63504C8.29681 9.54804 8.18611 9.49854 8.07031 9.49854C7.95451 9.49854 7.84381 9.54834 7.76701 9.63504L7.32451 10.1351C7.17961 10.2986 6.97171 10.3925 6.75301 10.3925H2.07361C2.19241 11.0252 2.39221 11.6291 2.66431 12.1919H5.95201Z" fill="white"/>
<path d="M11.1102 4.71736C11.2257 4.71736 11.3364 4.67026 11.4162 4.58686L12.0282 3.94816C12.1047 3.86836 12.2103 3.82336 12.3207 3.82336H12.3459C12.462 3.82336 12.5724 3.87316 12.6492 3.96016L13.1649 4.54306C13.263 4.65406 13.404 4.71736 13.5522 4.71736H14.9349C13.6182 2.96716 11.5239 1.83496 9.16473 1.83496C6.80553 1.83496 4.71123 2.96716 3.39453 4.71736H11.1102Z" fill="white"/>
<path d="M8.33306 13.9748H6.44216C6.29396 13.9748 6.15296 13.9112 6.05486 13.8005L5.53916 13.2176C5.46236 13.1306 5.35166 13.0811 5.23586 13.0811C5.12006 13.0811 5.00936 13.1309 4.93256 13.2176L4.49006 13.7177C4.34516 13.8812 4.13726 13.9751 3.91856 13.9751H3.88916C5.20646 15.3866 7.08236 16.2701 9.16526 16.2701C11.2482 16.2701 13.1238 15.3866 14.4414 13.9751H8.33306V13.9748Z" fill="white"/>
</g>
<defs>
<clipPath id="clip0_4385_12003">
<rect width="15" height="15" fill="white" transform="translate(1.5 1.5)"/>
</clipPath>
</defs>
</svg>
