<svg width="24" height="26" viewBox="0 0 24 26" fill="none" xmlns="http://www.w3.org/2000/svg">
<path opacity="0.4" fill-rule="evenodd" clip-rule="evenodd" d="M8.18376 4.35186H15.8621V2.56409H8.18376V4.35186ZM6.43707 2.6375V2.6464C5.83768 2.70092 5.24473 2.81995 4.66786 2.99906V2.99239C4.65071 2.9996 4.63457 3.00515 4.61907 3.01048C4.59873 3.01747 4.57951 3.02408 4.56064 3.03355C4.51453 3.04468 4.4695 3.06136 4.42661 3.0825C4.30008 3.12366 4.17356 3.17261 4.05454 3.22267C4.02291 3.23491 3.99128 3.2491 3.95965 3.26328C3.92801 3.27746 3.89638 3.29165 3.86475 3.30389C3.82133 3.32447 3.77602 3.347 3.73072 3.36952C3.68542 3.39205 3.64012 3.41458 3.59669 3.43516L3.38224 3.55865C3.34259 3.57887 3.30589 3.60258 3.26844 3.62679C3.24614 3.6412 3.22357 3.65578 3.19996 3.6699C2.87721 3.87793 2.57806 4.12157 2.30785 4.39858L2.29177 4.41526C2.25628 4.45663 2.22094 4.49677 2.18608 4.53637C2.1272 4.60325 2.06968 4.66858 2.01513 4.73566L1.99905 4.75124C1.12195 5.96163 0.68233 7.45347 0.75846 8.96535V9.44483H2.49013V8.9609C2.49013 6.85384 3.16136 5.54222 4.655 4.87027C5.22543 4.62886 5.82803 4.47979 6.44136 4.42528H6.45744V2.64529L6.43707 2.6375ZM21.9975 4.72899L22.005 4.74456C22.881 5.95606 23.3185 7.44903 23.2413 8.9609V9.44483H21.5107V8.94866C21.5471 8.05645 21.3681 7.16868 20.9885 6.36657C20.6239 5.68017 20.0406 5.14728 19.3362 4.85804C18.7754 4.61663 18.1814 4.46644 17.5755 4.41304V2.64195C18.1749 2.69758 18.7679 2.8155 19.3458 2.99461V2.98571C19.3783 3.00045 19.4031 3.00921 19.4456 3.02424L19.453 3.02688C19.4728 3.03386 19.4912 3.04084 19.5094 3.04773C19.5347 3.05733 19.5596 3.06677 19.5871 3.07583C19.7056 3.11472 19.8165 3.16057 19.9306 3.20773L19.9506 3.216C20.0032 3.23449 20.0528 3.25742 20.0975 3.27808C20.1119 3.28477 20.1259 3.29122 20.1393 3.29721C20.2336 3.33837 20.3301 3.38732 20.4073 3.42849C20.4588 3.4552 20.509 3.4838 20.556 3.51061C20.5814 3.52511 20.606 3.53909 20.6293 3.55197C20.6677 3.57319 20.7011 3.59589 20.7332 3.61771C20.7567 3.63366 20.7795 3.64913 20.803 3.66322C21.1268 3.87237 21.4292 4.11712 21.7026 4.3919L21.7123 4.40859C21.813 4.50983 21.9085 4.61663 21.9975 4.72899Z" fill="#8EE3FB"/>
<path d="M17.625 1.39616V5.33558C17.625 5.83193 17.2222 6.23396 16.725 6.23396C16.2277 6.23396 15.825 5.83193 15.825 5.33558V1.40514C15.8205 0.908786 16.221 0.50339 16.7182 0.500021C17.2155 0.496652 17.6216 0.89531 17.625 1.39167V1.39616Z" fill="#8EE3FB"/>
<path d="M8.175 1.41049V5.34017C8.175 5.83868 7.77176 6.24287 7.27444 6.24287C6.77712 6.24287 6.375 5.83868 6.375 5.34017V1.41049C6.375 0.911984 6.77712 0.508911 7.27444 0.508911C7.77176 0.508911 8.175 0.911984 8.175 1.41049Z" fill="#8EE3FB"/>
<path fill-rule="evenodd" clip-rule="evenodd" d="M0.75 19.1376V9.44482H23.25V19.1376C23.25 23.3644 20.8895 25.4999 16.2114 25.4999H7.7779C3.11052 25.4999 0.75 23.3644 0.75 19.1376ZM5.82513 14.8334C5.82513 15.4198 6.2865 15.8956 6.85517 15.8956C7.43457 15.8956 7.89594 15.4088 7.88521 14.8223C7.88521 14.2359 7.42384 13.7601 6.8659 13.7601H6.85517C6.2865 13.7601 5.82513 14.247 5.82513 14.8334ZM10.9646 14.8334C10.9646 15.4198 11.4367 15.8956 12.0054 15.8956C12.574 15.8956 13.0354 15.4198 13.0354 14.8223C13.0354 14.247 12.574 13.7712 12.0054 13.7601H11.9946C11.426 13.7712 10.9646 14.247 10.9646 14.8334ZM17.1449 15.8956C16.5762 15.8956 16.1148 15.4198 16.1148 14.8334C16.1148 14.247 16.5655 13.7712 17.1449 13.7712C17.7135 13.7712 18.1749 14.247 18.1749 14.8334C18.1749 15.4198 17.7135 15.8956 17.1449 15.8956ZM17.1449 20.4322C16.5762 20.4322 16.1148 19.9564 16.1041 19.37C16.1041 18.7836 16.5655 18.3078 17.1341 18.3078H17.1449C17.7135 18.3078 18.1749 18.7836 18.1749 19.37C18.1749 19.9564 17.7135 20.4322 17.1449 20.4322ZM12.0054 20.4322C11.4367 20.4322 10.9646 19.9564 10.9646 19.37C10.9646 18.7836 11.426 18.3078 11.9946 18.2967H12.0054C12.574 18.3078 13.0247 18.7836 13.0354 19.3589C13.0354 19.9564 12.574 20.4322 12.0054 20.4322ZM6.85515 20.4322C6.28648 20.4322 5.82511 19.9564 5.82511 19.37C5.81438 18.7836 6.27575 18.2967 6.85515 18.2967C7.42382 18.2967 7.88519 18.7725 7.88519 19.3589C7.88519 19.9454 7.42382 20.4322 6.85515 20.4322Z" fill="#8EE3FB"/>
</svg>
