<svg width="18" height="25" viewBox="0 0 18 25" fill="none" xmlns="http://www.w3.org/2000/svg">
<path fill-rule="evenodd" clip-rule="evenodd" d="M4.66453 1.17096C7.3956 -0.415907 10.7525 -0.388171 13.458 1.24362C16.1368 2.90864 17.765 5.88022 17.7498 9.0768C17.6874 12.2524 15.9416 15.2375 13.7593 17.5451C12.4998 18.883 11.0908 20.066 9.56105 21.07C9.40351 21.1611 9.23094 21.2221 9.05186 21.25C8.8795 21.2427 8.71165 21.1917 8.56344 21.1018C6.22803 19.5932 4.17917 17.6675 2.51541 15.4175C1.12323 13.5392 0.332293 11.27 0.25 8.91802C0.248193 5.71531 1.93346 2.75784 4.66453 1.17096ZM6.2427 10.2434C6.7021 11.376 7.78647 12.1147 8.9895 12.1147C9.77763 12.1204 10.5352 11.8047 11.0935 11.238C11.6518 10.6713 11.9643 9.90073 11.9616 9.09791C11.9658 7.87248 11.2443 6.76533 10.1341 6.29341C9.02384 5.82148 7.7438 6.07788 6.89164 6.94287C6.03949 7.80787 5.7833 9.11084 6.2427 10.2434Z" fill="#8EE3FB"/>
<path opacity="0.4" d="M9 25C12.4518 25 15.25 24.4404 15.25 23.75C15.25 23.0596 12.4518 22.5 9 22.5C5.54822 22.5 2.75 23.0596 2.75 23.75C2.75 24.4404 5.54822 25 9 25Z" fill="#8EE3FB"/>
</svg>
