<svg width="20" height="20" viewBox="0 0 20 20" fill="none" xmlns="http://www.w3.org/2000/svg">
<path d="M17.5 9.16667H15V3.33333C15 3.11232 14.9122 2.90036 14.7559 2.74408C14.5997 2.5878 14.3877 2.5 14.1667 2.5H2.50002C2.27901 2.5 2.06704 2.5878 1.91076 2.74408C1.75448 2.90036 1.66669 3.11232 1.66669 3.33333V15C1.66669 16.3783 2.78835 17.5 4.16669 17.5H15.8334C17.2117 17.5 18.3334 16.3783 18.3334 15V10C18.3334 9.77899 18.2456 9.56702 18.0893 9.41074C17.933 9.25446 17.721 9.16667 17.5 9.16667ZM4.16669 15.8333C3.94567 15.8333 3.73371 15.7455 3.57743 15.5893C3.42115 15.433 3.33335 15.221 3.33335 15V4.16667H13.3334V15C13.3334 15.2925 13.3842 15.5733 13.4759 15.8333H4.16669ZM16.6667 15C16.6667 15.221 16.5789 15.433 16.4226 15.5893C16.2663 15.7455 16.0544 15.8333 15.8334 15.8333C15.6123 15.8333 15.4004 15.7455 15.2441 15.5893C15.0878 15.433 15 15.221 15 15V10.8333H16.6667V15Z" fill="#9D80FF"/>
<path d="M5 5.83325H11.6667V7.49992H5V5.83325ZM5 9.16659H11.6667V10.8333H5V9.16659ZM9.16667 12.4999H11.6667V14.1666H9.16667V12.4999Z" fill="#9D80FF"/>
</svg>
