<svg width="37" height="28" viewBox="0 0 37 28" fill="none" xmlns="http://www.w3.org/2000/svg">
<g filter="url(#filter0_dd_9041_21801)">
<path d="M19.298 13.1203C19.2561 12.9969 19.179 12.8884 19.0761 12.8084C18.9733 12.7283 18.8493 12.6801 18.7194 12.6697L14.9187 12.3677L13.274 8.72699C13.2216 8.60973 13.1364 8.51013 13.0287 8.44022C12.921 8.37032 12.7953 8.33308 12.6669 8.33301C12.5385 8.33294 12.4128 8.37004 12.305 8.43983C12.1972 8.50962 12.1119 8.60912 12.0594 8.72632L10.4147 12.3677L6.61402 12.6697C6.48632 12.6798 6.36424 12.7265 6.26239 12.8041C6.16053 12.8818 6.08321 12.9872 6.03968 13.1077C5.99615 13.2281 5.98824 13.3586 6.01691 13.4835C6.04559 13.6083 6.10962 13.7222 6.20135 13.8117L9.01002 16.5497L8.01668 20.851C7.98652 20.9812 7.99619 21.1174 8.04443 21.2421C8.09267 21.3667 8.17726 21.474 8.28722 21.5499C8.39718 21.6259 8.52743 21.6671 8.66107 21.6681C8.79472 21.6691 8.92558 21.6299 9.03668 21.5557L12.6667 19.1357L16.2967 21.5557C16.4102 21.6311 16.5442 21.6699 16.6804 21.6669C16.8167 21.6639 16.9488 21.6192 17.0589 21.5389C17.1691 21.4586 17.252 21.3465 17.2965 21.2177C17.3411 21.0889 17.3451 20.9495 17.308 20.8183L16.0887 16.5517L19.1127 13.8303C19.3107 13.6517 19.3834 13.373 19.298 13.1203Z" fill="#8759FF"/>
</g>
<g filter="url(#filter1_dd_9041_21801)">
<path d="M30.9736 9.53932C30.9421 9.45447 30.8843 9.37991 30.8072 9.32485C30.73 9.26979 30.637 9.23664 30.5396 9.22949L27.6891 9.02187L26.4556 6.51891C26.4163 6.43829 26.3524 6.36982 26.2716 6.32176C26.1908 6.2737 26.0966 6.2481 26.0002 6.24805C25.9039 6.248 25.8096 6.2735 25.7288 6.32149C25.6479 6.36947 25.584 6.43787 25.5446 6.51845L24.3111 9.02187L21.4606 9.22949C21.3648 9.23645 21.2732 9.26855 21.1969 9.32195C21.1205 9.37536 21.0625 9.4478 21.0298 9.53063C20.9972 9.61345 20.9912 9.70315 21.0127 9.78898C21.0343 9.87481 21.0823 9.95315 21.1511 10.0146L23.2576 11.897L22.5126 14.8542C22.49 14.9437 22.4972 15.0373 22.5334 15.123C22.5696 15.2087 22.633 15.2825 22.7155 15.3347C22.7979 15.3869 22.8956 15.4152 22.9959 15.4159C23.0961 15.4166 23.1942 15.3897 23.2776 15.3386L26.0001 13.6749L28.7226 15.3386C28.8077 15.3905 28.9082 15.4171 29.0104 15.4151C29.1126 15.413 29.2117 15.3823 29.2943 15.3271C29.3769 15.2719 29.4391 15.1948 29.4725 15.1063C29.5059 15.0177 29.5089 14.9219 29.4811 14.8317L28.5666 11.8984L30.8346 10.0274C30.9831 9.90462 31.0376 9.71303 30.9736 9.53932Z" fill="#8759FF"/>
</g>
<defs>
<filter id="filter0_dd_9041_21801" x="0" y="2.33301" width="25.3333" height="25.335" filterUnits="userSpaceOnUse" color-interpolation-filters="sRGB">
<feFlood flood-opacity="0" result="BackgroundImageFix"/>
<feColorMatrix in="SourceAlpha" type="matrix" values="0 0 0 0 0 0 0 0 0 0 0 0 0 0 0 0 0 0 127 0" result="hardAlpha"/>
<feOffset dx="2" dy="2"/>
<feGaussianBlur stdDeviation="2"/>
<feComposite in2="hardAlpha" operator="out"/>
<feColorMatrix type="matrix" values="0 0 0 0 0.776471 0 0 0 0 0.741176 0 0 0 0 1 0 0 0 0.2 0"/>
<feBlend mode="normal" in2="BackgroundImageFix" result="effect1_dropShadow_9041_21801"/>
<feColorMatrix in="SourceAlpha" type="matrix" values="0 0 0 0 0 0 0 0 0 0 0 0 0 0 0 0 0 0 127 0" result="hardAlpha"/>
<feOffset dx="-2" dy="-2"/>
<feGaussianBlur stdDeviation="2"/>
<feComposite in2="hardAlpha" operator="out"/>
<feColorMatrix type="matrix" values="0 0 0 0 0.776471 0 0 0 0 0.741176 0 0 0 0 1 0 0 0 0.2 0"/>
<feBlend mode="normal" in2="effect1_dropShadow_9041_21801" result="effect2_dropShadow_9041_21801"/>
<feBlend mode="normal" in="SourceGraphic" in2="effect2_dropShadow_9041_21801" result="shape"/>
</filter>
<filter id="filter1_dd_9041_21801" x="15.0001" y="0.248047" width="21.9999" height="21.168" filterUnits="userSpaceOnUse" color-interpolation-filters="sRGB">
<feFlood flood-opacity="0" result="BackgroundImageFix"/>
<feColorMatrix in="SourceAlpha" type="matrix" values="0 0 0 0 0 0 0 0 0 0 0 0 0 0 0 0 0 0 127 0" result="hardAlpha"/>
<feOffset dx="2" dy="2"/>
<feGaussianBlur stdDeviation="2"/>
<feComposite in2="hardAlpha" operator="out"/>
<feColorMatrix type="matrix" values="0 0 0 0 0.776471 0 0 0 0 0.741176 0 0 0 0 1 0 0 0 0.2 0"/>
<feBlend mode="normal" in2="BackgroundImageFix" result="effect1_dropShadow_9041_21801"/>
<feColorMatrix in="SourceAlpha" type="matrix" values="0 0 0 0 0 0 0 0 0 0 0 0 0 0 0 0 0 0 127 0" result="hardAlpha"/>
<feOffset dx="-2" dy="-2"/>
<feGaussianBlur stdDeviation="2"/>
<feComposite in2="hardAlpha" operator="out"/>
<feColorMatrix type="matrix" values="0 0 0 0 0.776471 0 0 0 0 0.741176 0 0 0 0 1 0 0 0 0.2 0"/>
<feBlend mode="normal" in2="effect1_dropShadow_9041_21801" result="effect2_dropShadow_9041_21801"/>
<feBlend mode="normal" in="SourceGraphic" in2="effect2_dropShadow_9041_21801" result="shape"/>
</filter>
</defs>
</svg>
