<svg width="22" height="22" viewBox="0 0 22 22" fill="none" xmlns="http://www.w3.org/2000/svg">
<g id="Vector" filter="url(#filter0_dd_9041_21803)">
<path d="M15.9736 9.53932C15.9421 9.45447 15.8843 9.37991 15.8072 9.32485C15.73 9.26979 15.637 9.23664 15.5396 9.22949L12.6891 9.02187L11.4556 6.51891C11.4163 6.43829 11.3524 6.36982 11.2716 6.32176C11.1908 6.2737 11.0966 6.2481 11.0002 6.24805C10.9039 6.248 10.8096 6.2735 10.7288 6.32149C10.6479 6.36947 10.584 6.43787 10.5446 6.51845L9.31107 9.02187L6.46057 9.22949C6.3648 9.23645 6.27324 9.26855 6.19685 9.32195C6.12046 9.37536 6.06247 9.4478 6.02982 9.53063C5.99717 9.61345 5.99124 9.70315 6.01275 9.78898C6.03425 9.87481 6.08227 9.95315 6.15107 10.0146L8.25757 11.897L7.51257 14.8542C7.48995 14.9437 7.4972 15.0373 7.53338 15.123C7.56956 15.2087 7.63301 15.2825 7.71548 15.3347C7.79794 15.3869 7.89563 15.4152 7.99587 15.4159C8.0961 15.4166 8.19425 15.3897 8.27757 15.3386L11.0001 13.6749L13.7226 15.3386C13.8077 15.3905 13.9082 15.4171 14.0104 15.4151C14.1126 15.413 14.2117 15.3823 14.2943 15.3271C14.3769 15.2719 14.4391 15.1948 14.4725 15.1063C14.5059 15.0177 14.5089 14.9219 14.4811 14.8317L13.5666 11.8984L15.8346 10.0274C15.9831 9.90462 16.0376 9.71303 15.9736 9.53932Z" fill="#8759FF"/>
</g>
<defs>
<filter id="filter0_dd_9041_21803" x="6.10352e-05" y="0.248047" width="21.9999" height="21.168" filterUnits="userSpaceOnUse" color-interpolation-filters="sRGB">
<feFlood flood-opacity="0" result="BackgroundImageFix"/>
<feColorMatrix in="SourceAlpha" type="matrix" values="0 0 0 0 0 0 0 0 0 0 0 0 0 0 0 0 0 0 127 0" result="hardAlpha"/>
<feOffset dx="2" dy="2"/>
<feGaussianBlur stdDeviation="2"/>
<feComposite in2="hardAlpha" operator="out"/>
<feColorMatrix type="matrix" values="0 0 0 0 0.776471 0 0 0 0 0.741176 0 0 0 0 1 0 0 0 0.2 0"/>
<feBlend mode="normal" in2="BackgroundImageFix" result="effect1_dropShadow_9041_21803"/>
<feColorMatrix in="SourceAlpha" type="matrix" values="0 0 0 0 0 0 0 0 0 0 0 0 0 0 0 0 0 0 127 0" result="hardAlpha"/>
<feOffset dx="-2" dy="-2"/>
<feGaussianBlur stdDeviation="2"/>
<feComposite in2="hardAlpha" operator="out"/>
<feColorMatrix type="matrix" values="0 0 0 0 0.776471 0 0 0 0 0.741176 0 0 0 0 1 0 0 0 0.2 0"/>
<feBlend mode="normal" in2="effect1_dropShadow_9041_21803" result="effect2_dropShadow_9041_21803"/>
<feBlend mode="normal" in="SourceGraphic" in2="effect2_dropShadow_9041_21803" result="shape"/>
</filter>
</defs>
</svg>
