<svg width="80" height="93" viewBox="0 0 80 93" fill="none" xmlns="http://www.w3.org/2000/svg">
<path d="M17.5 61.6669C7.83502 61.6669 0 53.7386 0 43.9585C0 34.809 6.85731 27.2802 15.6551 26.3474C15.2276 24.7011 15 22.9728 15 21.1907C15 10.0135 23.9543 0.952576 35 0.952576C44.3942 0.952576 52.2757 7.50656 54.4224 16.3424C55.4286 16.2031 56.456 16.1311 57.5 16.1311C69.9264 16.1311 80 26.3247 80 38.899C80 51.4733 69.9264 61.6669 57.5 61.6669H45V43.5245L51.4645 50.0659C53.4171 52.0418 56.5829 52.0418 58.5355 50.0659C60.4882 48.09 60.4882 44.8865 58.5355 42.9107L43.5355 27.7321C41.5829 25.7562 38.4171 25.7562 36.4645 27.7321L21.4645 42.9107C19.5118 44.8865 19.5118 48.09 21.4645 50.0659C23.4171 52.0418 26.5829 52.0418 28.5355 50.0659L35 43.5245V61.6669H17.5Z" fill="#D9D9D9"/>
<path d="M35 61.6669H45L45 86.9645C45 89.7588 42.7614 92.024 40 92.024C37.2386 92.024 35 89.7588 35 86.9645L35 61.6669Z" fill="#D9D9D9"/>
</svg>
