<svg width="61" height="61" viewBox="0 0 61 61" fill="none" xmlns="http://www.w3.org/2000/svg">
<rect x="0.0302734" y="0.601135" width="60" height="60" rx="7" fill="#FFDED1"/>
<path d="M23.3887 25.7644C23.0208 25.518 22.7121 25.1931 22.4847 24.813C22.2574 24.433 22.117 24.0073 22.0739 23.5665C22.0307 23.1258 22.0857 22.6809 22.235 22.264C22.3843 21.847 22.6241 21.4684 22.9373 21.1552L28.6126 15.4791C28.9197 15.172 29.2898 14.9353 29.6973 14.7854C30.1048 14.6354 30.5401 14.5759 30.9729 14.6109C31.4058 14.6458 31.8258 14.7745 32.204 14.9879C32.5822 15.2013 32.9096 15.4943 33.1633 15.8467L34.1082 17.1574L24.6533 26.6115L23.3887 25.7644ZM26.3453 27.7463L35.2908 18.8017L37.9317 22.4698C37.9944 22.5567 38.0706 22.6329 38.1575 22.6956L41.8272 25.3389L32.8816 34.2855L30.3706 30.5334C30.298 30.4253 30.2051 30.3323 30.0969 30.2597L26.3453 27.7463ZM34.0163 35.9778L43.4693 26.5216L44.7777 27.4666C45.1301 27.7204 45.4231 28.0478 45.6365 28.426C45.8499 28.8043 45.9785 29.2244 46.0134 29.6573C46.0484 30.0902 45.9889 30.5255 45.839 30.9331C45.6891 31.3407 45.4524 31.7108 45.1453 32.0179L39.4719 37.692C39.159 38.0052 38.7805 38.2452 38.3637 38.3947C37.9469 38.5442 37.5021 38.5994 37.0614 38.5564C36.6207 38.5134 36.195 38.3733 35.815 38.1461C35.4349 37.9189 35.1099 37.6103 34.8633 37.2425L34.0143 35.9758L34.0163 35.9778ZM26.4292 30.2078L14.8947 41.7478C14.6245 42.0079 14.4089 42.3192 14.2606 42.6637C14.1122 43.0081 14.0339 43.3786 14.0304 43.7536C14.0269 44.1287 14.0982 44.5006 14.2401 44.8478C14.382 45.1949 14.5917 45.5102 14.8569 45.7754C15.1222 46.0405 15.4376 46.2501 15.7847 46.3918C16.1319 46.5336 16.5038 46.6047 16.8788 46.601C17.2538 46.5973 17.6242 46.5189 17.9685 46.3703C18.3128 46.2217 18.6241 46.0059 18.884 45.7356L30.4205 34.1996L28.8204 31.8101L26.4312 30.2098L26.4292 30.2078ZM34.0443 43.5659C34.0443 43.3009 34.1495 43.0468 34.3368 42.8595C34.5242 42.6722 34.7782 42.5669 35.0431 42.5669H41.0361C41.301 42.5669 41.5551 42.6722 41.7424 42.8595C41.9297 43.0468 42.0349 43.3009 42.0349 43.5659C42.0349 43.8308 41.9297 44.0849 41.7424 44.2722C41.5551 44.4596 41.301 44.5648 41.0361 44.5648H45.0314C45.2963 44.5648 45.5504 44.6701 45.7377 44.8574C45.925 45.0448 46.0303 45.2989 46.0303 45.5638C46.0303 45.8287 45.925 46.0828 45.7377 46.2702C45.5504 46.4575 45.2963 46.5628 45.0314 46.5628H31.0478C30.7829 46.5628 30.5288 46.4575 30.3415 46.2702C30.1542 46.0828 30.049 45.8287 30.049 45.5638C30.049 45.2989 30.1542 45.0448 30.3415 44.8574C30.5288 44.6701 30.7829 44.5648 31.0478 44.5648H35.0431C34.7782 44.5648 34.5242 44.4596 34.3368 44.2722C34.1495 44.0849 34.0443 43.8308 34.0443 43.5659Z" fill="#FF9871"/>
</svg>
