<svg width="61" height="61" viewBox="0 0 61 61" fill="none" xmlns="http://www.w3.org/2000/svg">
<rect x="0.0302734" y="0.601135" width="60" height="60" rx="7" fill="#749FE0"/>
<path d="M43.3634 25.2665C43.3631 25.0285 43.2992 24.7949 43.1782 24.59C43.0572 24.3851 42.8836 24.2163 42.6754 24.1011L30.646 17.4345C30.4484 17.3256 30.2264 17.2685 30.0007 17.2685C29.775 17.2685 29.553 17.3256 29.3554 17.4345L17.3847 24.0478C17.1767 24.163 17.0034 24.3316 16.8825 24.5363C16.7616 24.741 16.6977 24.9743 16.6973 25.212C16.6969 25.4497 16.76 25.6832 16.8802 25.8883C17.0003 26.0934 17.1731 26.2626 17.3807 26.3785L29.41 33.0985C29.6081 33.2097 29.8314 33.2683 30.0585 33.2685C30.2857 33.2688 30.5091 33.2107 30.7074 33.0998L42.678 26.4331C42.886 26.3175 43.0592 26.1483 43.1797 25.9432C43.3002 25.738 43.3636 25.5044 43.3634 25.2665ZM30.0607 30.4065L20.7767 25.2211L29.9994 20.1251L39.2847 25.2705L30.0607 30.4065Z" fill="#4F3ACA"/>
<path d="M41.3832 29.4358L30.0298 35.7425L18.6765 29.4358L17.3818 31.7665L29.3818 38.4331C29.5799 38.5431 29.8027 38.6008 30.0292 38.6008C30.2557 38.6008 30.4785 38.5431 30.6765 38.4331L42.6765 31.7665L41.3832 29.4358Z" fill="#4F3ACA"/>
<path d="M41.3832 34.7692L30.0298 41.0758L18.6765 34.7692L17.3818 37.0998L29.3818 43.7665C29.5799 43.8765 29.8027 43.9342 30.0292 43.9342C30.2557 43.9342 30.4785 43.8765 30.6765 43.7665L42.6765 37.0998L41.3832 34.7692Z" fill="#4F3ACA"/>
</svg>
