<svg width="61" height="61" viewBox="0 0 61 61" fill="none" xmlns="http://www.w3.org/2000/svg">
<rect x="0.697266" y="0.601135" width="60" height="60" rx="7" fill="#FFF3D6"/>
<path fill-rule="evenodd" clip-rule="evenodd" d="M15.6973 24.9136L28.5978 32.3617C28.7367 32.4419 28.8823 32.4999 29.0306 32.5366V46.9819L16.6173 39.6357C16.047 39.2982 15.6973 38.6847 15.6973 38.0221V24.9136ZM45.6966 24.7183V38.0248C45.6966 38.6874 45.3468 39.3009 44.7766 39.6384L32.3633 46.9846V32.4128C32.3935 32.3977 32.4235 32.3816 32.4532 32.3644L45.6966 24.7183Z" fill="#FEC53D"/>
<path opacity="0.499209" fill-rule="evenodd" clip-rule="evenodd" d="M16.1016 21.3026C16.2591 21.1036 16.458 20.9354 16.6899 20.8119L29.8149 13.8212C30.3659 13.5278 31.0268 13.5278 31.5778 13.8212L44.7028 20.8119C44.8815 20.9071 45.0407 21.0288 45.1764 21.1708L30.7862 29.479C30.6916 29.5336 30.6044 29.5961 30.5249 29.6652C30.4454 29.5961 30.3581 29.5336 30.2635 29.479L16.1016 21.3026Z" fill="#FEC53D"/>
</svg>
