<svg width="25" height="25" viewBox="0 0 25 25" fill="none" xmlns="http://www.w3.org/2000/svg">
<path d="M13.8725 13.6758L12.0303 11.8335L10.188 13.6758C9.67632 14.1875 9.67632 15.019 10.188 15.5308L12.0303 17.373L13.8725 15.5308C14.3842 15.019 14.3842 14.1875 13.8725 13.6758ZM12.0303 0.601151C5.4034 0.601151 0.0302734 5.97428 0.0302734 12.6011C0.0302734 19.228 5.4034 24.6011 12.0303 24.6011C18.6571 24.6011 24.0303 19.228 24.0303 12.6011C24.043 5.98707 18.6571 0.601151 12.0303 0.601151ZM20.8448 8.82716L16.9045 16.7077L18.1966 19.1384C18.3757 19.4711 18.3117 19.8804 18.0431 20.1491L17.0324 21.1598C16.6998 21.4924 16.1497 21.4924 15.817 21.1598L12.0303 17.373L8.24349 21.1598C7.91086 21.4924 7.36076 21.4924 7.02813 21.1598L6.01747 20.1491C5.74882 19.8804 5.68485 19.4711 5.86396 19.1384L7.15607 16.7077L3.21577 8.82716C3.04946 8.49453 3.11343 8.09794 3.38208 7.84208L5.09637 6.115C5.42899 5.78238 5.97909 5.78238 6.31172 6.115L12.0303 11.8335L17.7488 6.115C18.0814 5.78238 18.6315 5.78238 18.9642 6.115L20.6784 7.82929C20.9471 8.09794 21.0111 8.49453 20.8448 8.82716ZM13.8725 13.6758L12.0303 11.8335L10.188 13.6758C9.67632 14.1875 9.67632 15.019 10.188 15.5308L12.0303 17.373L13.8725 15.5308C14.3842 15.019 14.3842 14.1875 13.8725 13.6758Z" fill="#8759FF"/>
</svg>
