<svg width="61" height="61" viewBox="0 0 61 61" fill="none" xmlns="http://www.w3.org/2000/svg">
<rect x="0.363281" y="0.601135" width="60" height="60" rx="7" fill="#D9F7E8"/>
<path d="M18.6966 45.6011H42.0299C42.914 45.6011 43.7618 45.2499 44.387 44.6248C45.0121 43.9997 45.3633 43.1519 45.3633 42.2678V18.9345C45.3633 18.0504 45.0121 17.2026 44.387 16.5774C43.7618 15.9523 42.914 15.6011 42.0299 15.6011H18.6966C17.8126 15.6011 16.9647 15.9523 16.3396 16.5774C15.7145 17.2026 15.3633 18.0504 15.3633 18.9345V42.2678C15.3633 43.1519 15.7145 43.9997 16.3396 44.6248C16.9647 45.2499 17.8126 45.6011 18.6966 45.6011ZM23.6966 33.9345L27.6349 37.8728L33.6966 28.9345L42.0299 40.6011H18.6966L23.6966 33.9345Z" fill="#4AD991"/>
</svg>
