<svg width="61" height="61" viewBox="0 0 61 61" fill="none" xmlns="http://www.w3.org/2000/svg">
<rect x="0.0302734" y="0.601135" width="60" height="60" rx="7" fill="#2D2545"/>
<path opacity="0.587821" fill-rule="evenodd" clip-rule="evenodd" d="M19.3633 23.2678C19.3633 26.2133 21.7511 28.6011 24.6966 28.6011C27.6421 28.6011 30.0299 26.2133 30.0299 23.2678C30.0299 20.3223 27.6421 17.9345 24.6966 17.9345C21.7511 17.9345 19.3633 20.3223 19.3633 23.2678ZM32.6966 28.6011C32.6966 30.8103 34.4875 32.6011 36.6966 32.6011C38.9058 32.6011 40.6966 30.8103 40.6966 28.6011C40.6966 26.392 38.9058 24.6011 36.6966 24.6011C34.4875 24.6011 32.6966 26.392 32.6966 28.6011Z" fill="#8759FF"/>
<path fill-rule="evenodd" clip-rule="evenodd" d="M26.0081 32.6011C19.7128 32.6011 14.548 35.8365 14.0311 42.2001C14.003 42.5467 14.6659 43.2678 15.0003 43.2678H37.0259C38.0275 43.2678 38.0431 42.4618 38.0275 42.2011C37.6368 35.6587 32.3919 32.6011 26.0081 32.6011ZM45.3049 43.2678L40.1636 43.2678C40.1636 40.2666 39.172 37.4969 37.4985 35.2686C42.0405 35.3183 45.7492 37.6147 46.0283 42.4678C46.0395 42.6633 46.0283 43.2678 45.3049 43.2678Z" fill="#8759FF"/>
</svg>
