<?xml version="1.0" encoding="UTF-8"?>
<svg id="Layer_1" data-name="Layer 1" xmlns="http://www.w3.org/2000/svg" viewBox="0 0 578.63 165.99">
  <defs>
    <style>
      .cls-1 {
        fill: #8ee3fb;
      }
    </style>
  </defs>
  <path class="cls-1" d="m138.22,79.12c-5.62-23-22.58-41.53-44.64-49.35-1.17,13.91-6.41,26.67-14.52,37.07-.64.83-1.93.03-1.5-.92,4-8.82,6.23-18.63,6.23-28.94,0-3.41-.23-6.76-.72-10.02-.68-4.9-1.89-9.62-3.55-14.13-1.66-4.52-3.77-8.81-6.27-12.83-.4.79-.79,1.59-1.21,2.36-7.03,12.94-18.01,23.41-31.29,29.81-.34.18-.68.32-1.03.49-16.17,7.8-28.87,21.59-35.24,38.5-1.06,2.79-1.93,5.66-2.61,8.62-.79,3.28-1.33,6.67-1.62,10.13-.16,1.96-.25,3.95-.25,5.97,0,.74.02,1.48.04,2.2.07,2.65.31,5.26.68,7.84,4.85,33.89,33.94,59.97,69.16,60.09,34.95.12,65.16-26.04,69.75-60.69,1.2-9.06.64-17.94-1.41-26.18Zm-68.31,60.72c-12.47,0-23-8.29-26.33-19.68,8.18,3.14,17.05,4.85,26.33,4.85s18.19-1.71,26.37-4.85c-3.35,11.39-13.88,19.68-26.37,19.68Z"/>
  <g>
    <path class="cls-1" d="m172.53,135.96V54.01h34.54c5.42,0,10.06.94,13.91,2.81,3.85,1.87,6.82,4.51,8.91,7.92,2.09,3.41,3.13,7.53,3.13,12.37,0,3.74-1.01,7.24-3.02,10.51-2.02,3.26-5.22,5.96-9.62,8.08v-6.93c4.03,1.54,7.22,3.45,9.57,5.72,2.35,2.27,4,4.8,4.95,7.59.95,2.79,1.43,5.72,1.43,8.8,0,7.85-2.59,13.99-7.75,18.42-5.17,4.44-12.34,6.66-21.5,6.66h-34.54Zm14.96-50.16h20.35c3.08,0,5.54-.9,7.37-2.7,1.83-1.8,2.75-4.12,2.75-6.98s-.92-5.13-2.75-6.82c-1.83-1.69-4.29-2.53-7.37-2.53h-20.35v19.03Zm0,36.96h21.12c3.89,0,6.98-1.08,9.3-3.25,2.31-2.16,3.46-5.04,3.46-8.63s-1.15-6.49-3.46-8.69c-2.31-2.2-5.41-3.3-9.3-3.3h-21.12v23.87Z"/>
    <path class="cls-1" d="m248.53,135.96V54.01h30.47c5.57,0,10.5,1.01,14.79,3.03,4.29,2.02,7.65,4.95,10.07,8.8,2.42,3.85,3.63,8.53,3.63,14.03s-1.34,10.45-4.02,14.41c-2.68,3.96-6.29,6.89-10.83,8.8l18.81,32.89h-16.94l-20.13-35.97,9.68,5.72h-20.57v30.25h-14.96Zm14.96-43.45h15.73c2.71,0,5.06-.53,7.04-1.59,1.98-1.06,3.52-2.55,4.62-4.46,1.1-1.9,1.65-4.1,1.65-6.6s-.55-4.79-1.65-6.66c-1.1-1.87-2.64-3.34-4.62-4.4-1.98-1.06-4.33-1.59-7.04-1.59h-15.73v25.3Z"/>
    <path class="cls-1" d="m361.61,137.28c-6.01,0-11.62-1.06-16.83-3.19-5.21-2.13-9.75-5.1-13.64-8.91-3.89-3.81-6.91-8.31-9.07-13.47-2.16-5.17-3.25-10.76-3.25-16.78s1.06-11.69,3.19-16.83c2.13-5.13,5.13-9.61,9.02-13.42,3.89-3.81,8.43-6.76,13.64-8.85,5.21-2.09,10.85-3.14,16.94-3.14s11.73,1.06,16.94,3.19c5.21,2.13,9.75,5.08,13.64,8.86,3.89,3.78,6.91,8.23,9.07,13.37,2.16,5.13,3.25,10.74,3.25,16.83s-1.1,11.61-3.3,16.78c-2.2,5.17-5.24,9.66-9.13,13.47-3.89,3.81-8.42,6.78-13.59,8.91-5.17,2.13-10.8,3.19-16.88,3.19Zm0-13.64c4.03,0,7.74-.71,11.11-2.14,3.37-1.43,6.33-3.43,8.85-5.99,2.53-2.57,4.47-5.61,5.83-9.13,1.36-3.52,2.03-7.33,2.03-11.44s-.68-7.9-2.03-11.38c-1.36-3.48-3.3-6.53-5.83-9.13-2.53-2.6-5.48-4.6-8.85-5.99-3.37-1.39-7.08-2.09-11.11-2.09s-7.63.7-11,2.09c-3.37,1.39-6.33,3.39-8.85,5.99-2.53,2.6-4.49,5.65-5.89,9.13-1.39,3.48-2.09,7.28-2.09,11.38s.7,7.92,2.09,11.44c1.39,3.52,3.35,6.56,5.89,9.13,2.53,2.57,5.48,4.57,8.85,5.99,3.37,1.43,7.04,2.14,11,2.14Z"/>
    <path class="cls-1" d="m447.07,137.28c-5.21,0-10.03-.95-14.46-2.86-4.44-1.91-8.25-4.57-11.44-7.98-3.19-3.41-5.52-7.39-6.98-11.93l12.43-5.39c1.98,4.7,4.84,8.38,8.58,11.06,3.74,2.68,7.96,4.01,12.65,4.01,2.64,0,4.93-.42,6.87-1.26,1.94-.84,3.45-2,4.51-3.46,1.06-1.47,1.59-3.23,1.59-5.28,0-2.42-.71-4.42-2.15-5.99-1.43-1.58-3.57-2.81-6.43-3.69l-15.73-5.06c-6.38-1.98-11.18-4.95-14.41-8.91-3.23-3.96-4.84-8.62-4.84-13.97,0-4.69,1.15-8.84,3.46-12.43,2.31-3.59,5.54-6.4,9.68-8.41,4.14-2.02,8.89-3.03,14.24-3.03,4.91,0,9.42.86,13.53,2.59,4.11,1.72,7.65,4.11,10.61,7.15,2.97,3.04,5.19,6.62,6.66,10.72l-12.32,5.5c-1.61-4.11-4.03-7.28-7.26-9.51-3.23-2.24-6.97-3.35-11.22-3.35-2.49,0-4.69.42-6.6,1.26-1.91.84-3.39,2.02-4.45,3.52-1.06,1.5-1.59,3.28-1.59,5.34,0,2.27.73,4.27,2.2,5.99,1.47,1.72,3.7,3.06,6.71,4.01l15.07,4.73c6.53,2.13,11.42,5.06,14.69,8.8,3.26,3.74,4.89,8.36,4.89,13.86,0,4.69-1.21,8.84-3.63,12.43-2.42,3.59-5.76,6.42-10.01,8.47-4.25,2.05-9.2,3.08-14.85,3.08Z"/>
    <path class="cls-1" d="m488.98,135.96V54.01h14.96v42.68l-4.07-1.43,34.87-41.25h18.81l-32.67,38.72.88-10.56,32.78,53.79h-17.6l-22-36.08-11,13.09v22.99h-14.96Z"/>
    <path class="cls-1" d="m563.67,135.96V54.01h14.96v81.95h-14.96Z"/>
  </g>
</svg>