<svg width="41" height="40" viewBox="0 0 41 40" fill="none" xmlns="http://www.w3.org/2000/svg">
<g id="Frame 1958">
<path id="Vector" d="M23.1746 21.791L20.1042 18.7207L17.0339 21.791C16.181 22.6439 16.181 24.0298 17.0339 24.8827L20.1042 27.9531L23.1746 24.8827C24.0275 24.0298 24.0275 22.6439 23.1746 21.791ZM20.1042 0C9.05946 0 0.104248 8.95522 0.104248 20C0.104248 31.0447 9.05946 40 20.1042 40C31.149 40 40.1042 31.0447 40.1042 20C40.1255 8.97654 31.149 0 20.1042 0ZM34.7951 13.71L28.2279 26.8443L30.3814 30.8955C30.6799 31.4499 30.5733 32.1322 30.1255 32.5799L28.4411 34.2644C27.8867 34.8187 26.9699 34.8187 26.4155 34.2644L20.1042 27.9531L13.7929 34.2644C13.2386 34.8187 12.3217 34.8187 11.7673 34.2644L10.0829 32.5799C9.63516 32.1322 9.52855 31.4499 9.82705 30.8955L11.9806 26.8443L5.41341 13.71C5.13623 13.1556 5.24284 12.4947 5.6906 12.0682L8.54774 9.18976C9.10211 8.63539 10.019 8.63539 10.5733 9.18976L20.1042 18.7207L29.6351 9.18976C30.1895 8.63539 31.1064 8.63539 31.6607 9.18976L34.5179 12.0469C34.9656 12.4947 35.0722 13.1556 34.7951 13.71ZM23.1746 21.791L20.1042 18.7207L17.0339 21.791C16.181 22.6439 16.181 24.0298 17.0339 24.8827L20.1042 27.9531L23.1746 24.8827C24.0275 24.0298 24.0275 22.6439 23.1746 21.791Z" fill="#8759FF"/>
</g>
</svg>
