<svg width="152" height="40" viewBox="0 0 152 40" fill="none" xmlns="http://www.w3.org/2000/svg">
<g id="Wapal_logo_white">
<path id="Vector" d="M22.7894 21.6659L19.9506 18.8271L17.1118 21.6659C16.3232 22.4545 16.3232 23.7359 17.1118 24.5245L19.9506 27.3633L22.7894 24.5245C23.578 23.7359 23.578 22.4545 22.7894 21.6659ZM19.9506 1.51807C9.73868 1.51807 1.45874 9.79801 1.45874 20.0099C1.45874 30.2219 9.73868 38.5018 19.9506 38.5018C30.1625 38.5018 38.4425 30.2219 38.4425 20.0099C38.4622 9.81772 30.1625 1.51807 19.9506 1.51807ZM33.5337 14.1943L27.4617 26.3382L29.4528 30.0839C29.7288 30.5964 29.6303 31.2273 29.2163 31.6413L27.6588 33.1987C27.1463 33.7113 26.2986 33.7113 25.786 33.1987L19.9506 27.3633L14.1152 33.1987C13.6027 33.7113 12.7549 33.7113 12.2424 33.1987L10.685 31.6413C10.271 31.2273 10.1724 30.5964 10.4484 30.0839L12.4395 26.3382L6.36756 14.1943C6.11128 13.6817 6.20985 13.0706 6.62385 12.6763L9.26554 10.0149C9.77811 9.5023 10.6258 9.5023 11.1384 10.0149L19.9506 18.8271L28.7628 10.0149C29.2754 9.5023 30.1231 9.5023 30.6357 10.0149L33.2774 12.6566C33.6914 13.0706 33.7899 13.6817 33.5337 14.1943ZM22.7894 21.6659L19.9506 18.8271L17.1118 21.6659C16.3232 22.4545 16.3232 23.7359 17.1118 24.5245L19.9506 27.3633L22.7894 24.5245C23.578 23.7359 23.578 22.4545 22.7894 21.6659Z" fill="white"/>
<g id="Group">
<path id="Vector_2" d="M44 11H49.8354L53.0488 23.1833H53.3248L57.169 11H62.5313L66.415 23.1833H66.691L69.865 11H75.6215L69.3918 30.4579H63.793L59.9093 18.1957H59.6333L55.7496 30.4579H50.2297L44 11Z" fill="white"/>
<path id="Vector_3" d="M90.9021 27.8954H90.5867C89.9756 28.6445 89.2462 29.2754 88.3787 29.8076C87.5113 30.3399 86.4073 30.5962 85.0668 30.5962C84.0613 30.5962 83.1151 30.4385 82.2279 30.1034C81.3408 29.7682 80.5719 29.3148 79.9016 28.7431C79.2314 28.1517 78.7188 27.4617 78.3442 26.6337C77.9697 25.8057 77.7922 24.9185 77.7922 23.9328C77.7922 22.9274 77.9894 22.0206 78.3837 21.2123C78.7779 20.404 79.3299 19.714 80.0594 19.1226C80.7691 18.5312 81.6168 18.0974 82.5828 17.8017C83.5488 17.506 84.5936 17.3483 85.737 17.3483C86.9987 17.3483 88.0436 17.4469 88.8716 17.644C89.6996 17.8412 90.3699 18.0383 90.9021 18.2552V17.6637C90.9021 16.6386 90.4881 15.7712 89.6799 15.1009C88.8519 14.4306 87.8464 14.0955 86.6242 14.0955C84.8302 14.0955 83.3122 14.8446 82.0505 16.3626L78.2851 13.78C80.3551 11.1581 83.1742 9.85693 86.7425 9.85693C89.7587 9.85693 92.0653 10.5666 93.6424 11.9861C95.2393 13.4055 96.0278 15.4952 96.0278 18.2749V29.9456H90.9021V27.8954ZM90.9021 22.06C90.291 21.7643 89.6602 21.5474 89.0096 21.37C88.359 21.1926 87.6493 21.1137 86.8805 21.1137C85.6385 21.1137 84.6725 21.3897 84.0022 21.922C83.3319 22.474 82.9968 23.1246 82.9968 23.9328C82.9968 24.7411 83.3122 25.3523 83.9628 25.8451C84.6133 26.3182 85.3625 26.5548 86.2102 26.5548C86.9002 26.5548 87.531 26.4365 88.1224 26.1802C88.7139 25.924 89.2067 25.5888 89.6207 25.1945C90.0347 24.7805 90.3501 24.3074 90.567 23.7751C90.8036 23.2034 90.9021 22.6317 90.9021 22.06Z" fill="white"/>
<path id="Vector_4" d="M99.9902 10.5078H104.879V12.8538H105.195C105.668 12.0258 106.417 11.3358 107.422 10.7444C108.428 10.1727 109.67 9.87695 111.148 9.87695C112.39 9.87695 113.573 10.1332 114.697 10.6458C115.821 11.1584 116.806 11.8681 117.674 12.7946C118.541 13.7015 119.212 14.8055 119.724 16.0672C120.217 17.3289 120.473 18.7286 120.473 20.2269C120.473 21.7252 120.217 23.1249 119.724 24.3866C119.212 25.6483 118.541 26.7523 117.674 27.6591C116.806 28.566 115.821 29.2954 114.697 29.808C113.573 30.3205 112.39 30.5768 111.148 30.5768C109.67 30.5768 108.428 30.2811 107.422 29.7094C106.417 29.1377 105.668 28.428 105.195 27.6H104.879L105.195 30.3797V38.5216H99.9902V10.5078ZM110.084 25.7863C110.774 25.7863 111.424 25.6483 112.055 25.392C112.686 25.1357 113.218 24.7611 113.711 24.288C114.184 23.8149 114.579 23.2234 114.855 22.5334C115.15 21.8434 115.288 21.0746 115.288 20.2269C115.288 19.3792 115.15 18.6103 114.855 17.9203C114.559 17.2303 114.184 16.6586 113.711 16.1658C113.238 15.6926 112.686 15.3181 112.055 15.0618C111.424 14.8055 110.774 14.6675 110.084 14.6675C109.394 14.6675 108.743 14.7858 108.112 15.0421C107.482 15.2983 106.949 15.6532 106.456 16.1263C105.983 16.5995 105.589 17.1909 105.313 17.8809C105.017 18.5709 104.879 19.3595 104.879 20.2269C104.879 21.0943 105.017 21.8829 105.313 22.5729C105.609 23.2629 105.983 23.8346 106.456 24.3274C106.93 24.8006 107.482 25.1751 108.112 25.4117C108.743 25.6483 109.394 25.7863 110.084 25.7863Z" fill="white"/>
<path id="Vector_5" d="M135.811 27.8954H135.495C134.884 28.6445 134.155 29.2754 133.287 29.8076C132.42 30.3399 131.316 30.5962 129.975 30.5962C128.97 30.5962 128.024 30.4385 127.137 30.1034C126.249 29.7682 125.481 29.3148 124.81 28.7431C124.14 28.1517 123.627 27.4617 123.253 26.6337C122.878 25.8057 122.701 24.9185 122.701 23.9328C122.701 22.9274 122.898 22.0206 123.292 21.2123C123.687 20.404 124.239 19.714 124.968 19.1226C125.678 18.5312 126.525 18.0974 127.491 17.8017C128.457 17.506 129.502 17.3483 130.646 17.3483C131.907 17.3483 132.952 17.4469 133.78 17.644C134.608 17.8412 135.279 18.0383 135.811 18.2552V17.6637C135.811 16.6386 135.397 15.7712 134.589 15.1009C133.761 14.4306 132.755 14.0955 131.533 14.0955C129.739 14.0955 128.221 14.8446 126.959 16.3626L123.194 13.78C125.244 11.1581 128.063 9.85693 131.631 9.85693C134.648 9.85693 136.954 10.5666 138.531 11.9861C140.128 13.4055 140.917 15.4952 140.917 18.2749V29.9456H135.791V27.8954H135.811ZM135.811 22.06C135.2 21.7643 134.569 21.5474 133.918 21.37C133.268 21.1926 132.558 21.1137 131.789 21.1137C130.547 21.1137 129.581 21.3897 128.911 21.922C128.241 22.474 127.905 23.1246 127.905 23.9328C127.905 24.7411 128.221 25.3523 128.871 25.8451C129.522 26.3182 130.271 26.5548 131.119 26.5548C131.809 26.5548 132.44 26.4365 133.031 26.1802C133.623 25.924 134.115 25.5888 134.529 25.1945C134.943 24.7805 135.259 24.3074 135.476 23.7751C135.693 23.2034 135.811 22.6317 135.811 22.06Z" fill="white"/>
<path id="Vector_6" d="M145.057 29.9459V1.51807H150.261V29.9459H145.057Z" fill="white"/>
</g>
</g>
</svg>
