<svg width="107" height="28" viewBox="0 0 107 28" fill="none" xmlns="http://www.w3.org/2000/svg">
<g id="Wapal_logo_standard">
<path id="Vector" d="M15.9527 15.166L13.9655 13.1788L11.9784 15.166C11.4264 15.718 11.4264 16.615 11.9784 17.167L13.9655 19.1542L15.9527 17.167C16.5047 16.615 16.5047 15.718 15.9527 15.166ZM13.9655 1.0625C6.8172 1.0625 1.02124 6.85846 1.02124 14.0068C1.02124 21.1552 6.8172 26.9511 13.9655 26.9511C21.1139 26.9511 26.9099 21.1552 26.9099 14.0068C26.9237 6.87226 21.1139 1.0625 13.9655 1.0625ZM23.4737 9.93584L19.2233 18.4366L20.6171 21.0586C20.8103 21.4174 20.7413 21.859 20.4515 22.1488L19.3613 23.2389C19.0025 23.5977 18.4091 23.5977 18.0503 23.2389L13.9655 19.1542L9.88078 23.2389C9.52198 23.5977 8.92858 23.5977 8.56979 23.2389L7.47959 22.1488C7.1898 21.859 7.1208 21.4174 7.31399 21.0586L8.70778 18.4366L4.45742 9.93584C4.27802 9.57704 4.34702 9.14924 4.63681 8.87324L6.486 7.01026C6.8448 6.65146 7.43819 6.65146 7.79699 7.01026L13.9655 13.1788L20.1341 7.01026C20.4929 6.65146 21.0863 6.65146 21.4451 7.01026L23.2943 8.85944C23.5841 9.14924 23.6531 9.57704 23.4737 9.93584ZM15.9527 15.166L13.9655 13.1788L11.9784 15.166C11.4264 15.718 11.4264 16.615 11.9784 17.167L13.9655 19.1542L15.9527 17.167C16.5047 16.615 16.5047 15.718 15.9527 15.166Z" fill="#8759FF"/>
<g id="Group">
<path id="Vector_2" d="M31.7122 7.35547H35.7969L38.0463 15.8838H38.2395L40.9305 7.35547H44.6841L47.4026 15.8838H47.5958L49.8176 7.35547H53.8472L49.4864 20.976H45.5673L42.8487 12.3924H42.6555L39.9369 20.976H36.0729L31.7122 7.35547Z" fill="#8759FF"/>
<path id="Vector_3" d="M63.6313 19.5268H63.4105C62.9827 20.0512 62.4721 20.4928 61.8649 20.8654C61.2577 21.238 60.4849 21.4174 59.5465 21.4174C58.8427 21.4174 58.1803 21.307 57.5593 21.0724C56.9383 20.8378 56.4001 20.5204 55.9309 20.1202C55.4617 19.7062 55.1029 19.2232 54.8407 18.6436C54.5785 18.064 54.4543 17.443 54.4543 16.753C54.4543 16.0492 54.5923 15.4144 54.8683 14.8486C55.1443 14.2828 55.5307 13.7999 56.0413 13.3859C56.5381 12.9719 57.1315 12.6683 57.8077 12.4613C58.4839 12.2543 59.2153 12.1439 60.0157 12.1439C60.8989 12.1439 61.6303 12.2129 62.2099 12.3509C62.7895 12.4889 63.2587 12.6269 63.6313 12.7787V12.3647C63.6313 11.6471 63.3415 11.0399 62.7757 10.5707C62.1961 10.1015 61.4923 9.86688 60.6367 9.86688C59.3809 9.86688 58.3183 10.3913 57.4351 11.4539L54.7993 9.64608C56.2483 7.8107 58.2217 6.8999 60.7195 6.8999C62.8309 6.8999 64.4455 7.3967 65.5495 8.39029C66.6673 9.38388 67.2193 10.8467 67.2193 12.7925V20.962H63.6313V19.5268ZM63.6313 15.442C63.2035 15.235 62.7619 15.0832 62.3065 14.959C61.8511 14.8348 61.3543 14.7796 60.8161 14.7796C59.9467 14.7796 59.2705 14.9728 58.8013 15.3454C58.3321 15.7318 58.0975 16.1872 58.0975 16.753C58.0975 17.3188 58.3183 17.7466 58.7737 18.0916C59.2291 18.4228 59.7535 18.5884 60.3469 18.5884C60.8299 18.5884 61.2715 18.5056 61.6855 18.3262C62.0995 18.1468 62.4445 17.9122 62.7343 17.6362C63.0241 17.3464 63.2449 17.0152 63.3967 16.6426C63.5623 16.2424 63.6313 15.8422 63.6313 15.442Z" fill="#8759FF"/>
<path id="Vector_4" d="M69.9932 7.35517H73.4155V8.99736H73.6363C73.9675 8.41776 74.4919 7.93477 75.1957 7.52077C75.8995 7.12057 76.7689 6.91357 77.8039 6.91357C78.6733 6.91357 79.5013 7.09297 80.2879 7.45177C81.0745 7.81057 81.7645 8.30736 82.3717 8.95596C82.9789 9.59076 83.4481 10.3636 83.8069 11.2467C84.1519 12.1299 84.3313 13.1097 84.3313 14.1585C84.3313 15.2073 84.1519 16.1871 83.8069 17.0703C83.4481 17.9535 82.9789 18.7263 82.3717 19.3611C81.7645 19.9959 81.0745 20.5065 80.2879 20.8653C79.5013 21.2241 78.6733 21.4035 77.8039 21.4035C76.7689 21.4035 75.8995 21.1965 75.1957 20.7963C74.4919 20.3961 73.9675 19.8993 73.6363 19.3197H73.4155L73.6363 21.2655V26.9648H69.9932V7.35517ZM77.0587 18.0501C77.5417 18.0501 77.9971 17.9535 78.4387 17.7741C78.8803 17.5947 79.2529 17.3325 79.5979 17.0013C79.9291 16.6701 80.2051 16.2561 80.3983 15.7731C80.6053 15.2901 80.7019 14.7519 80.7019 14.1585C80.7019 13.5651 80.6053 13.0269 80.3983 12.5439C80.1913 12.0609 79.9291 11.6607 79.5979 11.3157C79.2667 10.9845 78.8803 10.7223 78.4387 10.5429C77.9971 10.3636 77.5417 10.267 77.0587 10.267C76.5757 10.267 76.1203 10.3498 75.6787 10.5291C75.2371 10.7085 74.8645 10.9569 74.5195 11.2881C74.1883 11.6193 73.9123 12.0333 73.7191 12.5163C73.5121 12.9993 73.4155 13.5513 73.4155 14.1585C73.4155 14.7657 73.5121 15.3177 73.7191 15.8007C73.9261 16.2837 74.1883 16.6839 74.5195 17.0289C74.8507 17.3601 75.2371 17.6223 75.6787 17.7879C76.1203 17.9535 76.5757 18.0501 77.0587 18.0501Z" fill="#8759FF"/>
<path id="Vector_5" d="M95.0676 19.5268H94.8468C94.419 20.0512 93.9084 20.4928 93.3012 20.8654C92.694 21.238 91.9212 21.4174 90.9828 21.4174C90.279 21.4174 89.6166 21.307 88.9956 21.0724C88.3746 20.8378 87.8364 20.5204 87.3672 20.1202C86.898 19.7062 86.5392 19.2232 86.277 18.6436C86.0148 18.064 85.8906 17.443 85.8906 16.753C85.8906 16.0492 86.0286 15.4144 86.3046 14.8486C86.5806 14.2828 86.967 13.7999 87.4776 13.3859C87.9744 12.9719 88.5678 12.6683 89.244 12.4613C89.9202 12.2543 90.6516 12.1439 91.452 12.1439C92.3352 12.1439 93.0666 12.2129 93.6462 12.3509C94.2258 12.4889 94.695 12.6269 95.0676 12.7787V12.3647C95.0676 11.6471 94.7778 11.0399 94.212 10.5707C93.6324 10.1015 92.9286 9.86688 92.073 9.86688C90.8172 9.86688 89.7546 10.3913 88.8714 11.4539L86.2356 9.64608C87.6708 7.8107 89.6442 6.8999 92.142 6.8999C94.2534 6.8999 95.868 7.3967 96.9719 8.39029C98.0897 9.38388 98.6417 10.8467 98.6417 12.7925V20.962H95.0538V19.5268H95.0676ZM95.0676 15.442C94.6398 15.235 94.1982 15.0832 93.7428 14.959C93.2874 14.8348 92.7906 14.7796 92.2524 14.7796C91.383 14.7796 90.7068 14.9728 90.2376 15.3454C89.7684 15.7318 89.5338 16.1872 89.5338 16.753C89.5338 17.3188 89.7546 17.7466 90.21 18.0916C90.6654 18.4228 91.1898 18.5884 91.7832 18.5884C92.2662 18.5884 92.7078 18.5056 93.1218 18.3262C93.5358 18.1468 93.8808 17.9122 94.1706 17.6362C94.4604 17.3464 94.6812 17.0152 94.833 16.6426C94.9848 16.2424 95.0676 15.8422 95.0676 15.442Z" fill="#8759FF"/>
<path id="Vector_6" d="M101.54 20.962V1.0625H105.183V20.962H101.54Z" fill="#8759FF"/>
</g>
</g>
</svg>
