<?xml version="1.0" encoding="UTF-8"?>
<svg id="Layer_1" data-name="Layer 1" xmlns="http://www.w3.org/2000/svg" viewBox="0 0 502.98 595.28">
  <defs>
    <style>
      .cls-1 {
        fill: #8ee3fb;
      }
    </style>
  </defs>
  <path class="cls-1" d="m495.67,283.74c-20.16-82.47-80.99-148.92-160.1-176.97-4.18,49.9-23,95.64-52.06,132.95-2.31,2.97-6.93.11-5.37-3.32,14.36-31.64,22.33-66.81,22.33-103.78,0-12.22-.84-24.24-2.59-35.94-2.46-17.58-6.79-34.51-12.73-50.67-5.95-16.22-13.51-31.61-22.49-46.02-1.42,2.84-2.84,5.69-4.33,8.47-25.21,46.41-64.57,83.96-112.2,106.9-1.23.65-2.46,1.16-3.68,1.75-57.98,27.99-103.54,77.43-126.36,138.06-3.81,10.02-6.92,20.3-9.37,30.89-2.84,11.76-4.78,23.91-5.82,36.32-.58,7.05-.9,14.15-.9,21.39,0,2.65.06,5.3.13,7.89.26,9.5,1.1,18.87,2.46,28.12,17.41,121.55,121.73,215.04,248,215.49,125.35.44,233.69-93.38,250.15-217.64,4.3-32.49,2.3-64.34-5.06-93.89Zm-244.96,217.75c-44.73,0-82.47-29.73-94.43-70.58,29.34,11.25,61.14,17.39,94.43,17.39s65.22-6.14,94.56-17.39c-12.02,40.85-49.77,70.58-94.56,70.58Z"/>
</svg>