<svg width="188" height="188" viewBox="0 0 188 188" fill="none" xmlns="http://www.w3.org/2000/svg">
<path d="M108.2 102.2L93.8 87.8L79.4 102.2C75.4 106.2 75.4 112.7 79.4 116.7L93.8 131.1L108.2 116.7C112.2 112.7 112.2 106.2 108.2 102.2ZM93.8 0C42 0 0 42 0 93.8C0 145.6 42 187.6 93.8 187.6C145.6 187.6 187.6 145.6 187.6 93.8C187.7 42.1 145.6 0 93.8 0ZM162.7 64.3L131.9 125.9L142 144.9C143.4 147.5 142.9 150.7 140.8 152.8L132.9 160.7C130.3 163.3 126 163.3 123.4 160.7L93.8 131.1L64.2 160.7C61.6 163.3 57.3 163.3 54.7 160.7L46.8 152.8C44.7 150.7 44.2 147.5 45.6 144.9L55.7 125.9L24.9 64.3C23.6 61.7 24.1 58.6 26.2 56.6L39.6 43.1C42.2 40.5 46.5 40.5 49.1 43.1L93.8 87.8L138.5 43.1C141.1 40.5 145.4 40.5 148 43.1L161.4 56.5C163.5 58.6 164 61.7 162.7 64.3ZM108.2 102.2L93.8 87.8L79.4 102.2C75.4 106.2 75.4 112.7 79.4 116.7L93.8 131.1L108.2 116.7C112.2 112.7 112.2 106.2 108.2 102.2Z" fill="#8EE3FB"/>
</svg>
