<svg width="770" height="203" viewBox="0 0 770 203" fill="none" xmlns="http://www.w3.org/2000/svg">
<path d="M115.6 109.9L101.2 95.5L86.7999 109.9C82.7999 113.9 82.7999 120.4 86.7999 124.4L101.2 138.8L115.6 124.4C119.6 120.4 119.6 113.9 115.6 109.9ZM101.2 7.69995C49.3999 7.69995 7.3999 49.7 7.3999 101.5C7.3999 153.3 49.3999 195.3 101.2 195.3C153 195.3 195 153.3 195 101.5C195.1 49.8 153 7.69995 101.2 7.69995ZM170.1 72L139.3 133.6L149.4 152.6C150.8 155.2 150.3 158.4 148.2 160.5L140.3 168.4C137.7 171 133.4 171 130.8 168.4L101.2 138.8L71.5999 168.4C68.9999 171 64.6999 171 62.0999 168.4L54.1999 160.5C52.0999 158.4 51.5999 155.2 52.9999 152.6L63.0999 133.6L32.2999 72C30.9999 69.4 31.4999 66.3 33.5999 64.3L46.9999 50.7999C49.5999 48.1999 53.8999 48.1999 56.4999 50.7999L101.2 95.5L145.9 50.7999C148.5 48.1999 152.8 48.1999 155.4 50.7999L168.8 64.1999C170.9 66.2999 171.4 69.4 170.1 72ZM115.6 109.9L101.2 95.5L86.7999 109.9C82.7999 113.9 82.7999 120.4 86.7999 124.4L101.2 138.8L115.6 124.4C119.6 120.4 119.6 113.9 115.6 109.9Z" fill="#8EE3FB"/>
<path d="M229.8 53.2999H259.4L275.7 115.1H277.1L296.6 53.2999H323.8L343.5 115.1H344.9L361 53.2999H390.2L358.6 152H330.2L310.5 89.7999H309.1L289.4 152H261.4L229.8 53.2999Z" fill="#8EE3FB"/>
<path d="M461.1 141.5H459.5C456.4 145.3 452.7 148.5 448.3 151.2C443.9 153.9 438.3 155.2 431.5 155.2C426.4 155.2 421.6 154.4 417.1 152.7C412.6 151 408.7 148.7 405.3 145.8C401.9 142.8 399.3 139.3 397.4 135.1C395.5 130.9 394.6 126.4 394.6 121.4C394.6 116.3 395.6 111.7 397.6 107.6C399.6 103.5 402.4 100 406.1 97C409.7 94 414 91.8 418.9 90.3C423.8 88.8 429.1 88 434.9 88C441.3 88 446.6 88.5 450.8 89.5C455 90.5 458.4 91.5 461.1 92.6V89.6C461.1 84.4 459 80 454.9 76.6C450.7 73.2 445.6 71.5 439.4 71.5C430.3 71.5 422.6 75.3 416.2 83L397.1 69.9C407.6 56.6 421.9 50 440 50C455.3 50 467 53.6 475 60.8C483.1 68 487.1 78.6 487.1 92.7V151.9H461.1V141.5ZM461.1 111.9C458 110.4 454.8 109.3 451.5 108.4C448.2 107.5 444.6 107.1 440.7 107.1C434.4 107.1 429.5 108.5 426.1 111.2C422.7 114 421 117.3 421 121.4C421 125.5 422.6 128.6 425.9 131.1C429.2 133.5 433 134.7 437.3 134.7C440.8 134.7 444 134.1 447 132.8C450 131.5 452.5 129.8 454.6 127.8C456.7 125.7 458.3 123.3 459.4 120.6C460.6 117.7 461.1 114.8 461.1 111.9Z" fill="#8EE3FB"/>
<path d="M507.2 53.3H532V65.2H533.6C536 61 539.8 57.5 544.9 54.5C550 51.6 556.3 50.1 563.8 50.1C570.1 50.1 576.1 51.4 581.8 54C587.5 56.6 592.5 60.2 596.9 64.9C601.3 69.5 604.7 75.1 607.3 81.5C609.8 87.9 611.1 95 611.1 102.6C611.1 110.2 609.8 117.3 607.3 123.7C604.7 130.1 601.3 135.7 596.9 140.3C592.5 144.9 587.5 148.6 581.8 151.2C576.1 153.8 570.1 155.1 563.8 155.1C556.3 155.1 550 153.6 544.9 150.7C539.8 147.8 536 144.2 533.6 140H532L533.6 154.1V195.4H507.2V53.3ZM558.4 130.8C561.9 130.8 565.2 130.1 568.4 128.8C571.6 127.5 574.3 125.6 576.8 123.2C579.2 120.8 581.2 117.8 582.6 114.3C584.1 110.8 584.8 106.9 584.8 102.6C584.8 98.3 584.1 94.4 582.6 90.9C581.1 87.4 579.2 84.5 576.8 82C574.4 79.6 571.6 77.7 568.4 76.4C565.2 75.1 561.9 74.4 558.4 74.4C554.9 74.4 551.6 75 548.4 76.3C545.2 77.6 542.5 79.4 540 81.8C537.6 84.2 535.6 87.2 534.2 90.7C532.7 94.2 532 98.2 532 102.6C532 107 532.7 111 534.2 114.5C535.7 118 537.6 120.9 540 123.4C542.4 125.8 545.2 127.7 548.4 128.9C551.6 130.1 554.9 130.8 558.4 130.8Z" fill="#8EE3FB"/>
<path d="M688.9 141.5H687.3C684.2 145.3 680.5 148.5 676.1 151.2C671.7 153.9 666.1 155.2 659.3 155.2C654.2 155.2 649.4 154.4 644.9 152.7C640.4 151 636.5 148.7 633.1 145.8C629.7 142.8 627.1 139.3 625.2 135.1C623.3 130.9 622.4 126.4 622.4 121.4C622.4 116.3 623.4 111.7 625.4 107.6C627.4 103.5 630.2 100 633.9 97C637.5 94 641.8 91.8 646.7 90.3C651.6 88.8 656.9 88 662.7 88C669.1 88 674.4 88.5 678.6 89.5C682.8 90.5 686.2 91.5 688.9 92.6V89.6C688.9 84.4 686.8 80 682.7 76.6C678.5 73.2 673.4 71.5 667.2 71.5C658.1 71.5 650.4 75.3 644 83L624.9 69.9C635.3 56.6 649.6 50 667.7 50C683 50 694.7 53.6 702.7 60.8C710.8 68 714.8 78.6 714.8 92.7V151.9H688.8V141.5H688.9ZM688.9 111.9C685.8 110.4 682.6 109.3 679.3 108.4C676 107.5 672.4 107.1 668.5 107.1C662.2 107.1 657.3 108.5 653.9 111.2C650.5 114 648.8 117.3 648.8 121.4C648.8 125.5 650.4 128.6 653.7 131.1C657 133.5 660.8 134.7 665.1 134.7C668.6 134.7 671.8 134.1 674.8 132.8C677.8 131.5 680.3 129.8 682.4 127.8C684.5 125.7 686.1 123.3 687.2 120.6C688.3 117.7 688.9 114.8 688.9 111.9Z" fill="#8EE3FB"/>
<path d="M735.8 151.9V7.69995H762.2V151.9H735.8Z" fill="#8EE3FB"/>
</svg>
