<svg width="33" height="32" viewBox="0 0 33 32" fill="none" xmlns="http://www.w3.org/2000/svg">
<ellipse cx="16.2759" cy="16" rx="16.2759" ry="16" fill="#D9D9D9"/>
<path d="M18.7745 17.4328L16.2758 14.9765L13.7772 17.4328C13.0831 18.1151 13.0831 19.2239 13.7772 19.9062L16.2758 22.3625L18.7745 19.9062C19.4685 19.2239 19.4685 18.1151 18.7745 17.4328ZM16.2758 0C7.28769 0 0 7.16418 0 16C0 24.8358 7.28769 32 16.2758 32C25.264 32 32.5517 24.8358 32.5517 16C32.569 7.18124 25.264 0 16.2758 0ZM28.2311 10.968L22.8868 21.4755L24.6393 24.7164C24.8823 25.1599 24.7955 25.7058 24.4311 26.064L23.0603 27.4115C22.6092 27.855 21.8631 27.855 21.4119 27.4115L16.2758 22.3625L11.1398 27.4115C10.6886 27.855 9.94249 27.855 9.49135 27.4115L8.12057 26.064C7.75619 25.7058 7.66943 25.1599 7.91235 24.7164L9.66487 21.4755L4.32056 10.968C4.09499 10.5245 4.18175 9.99574 4.54613 9.65458L6.87125 7.35181C7.3224 6.90832 8.06852 6.90832 8.51966 7.35181L16.2758 14.9765L24.032 7.35181C24.4832 6.90832 25.2293 6.90832 25.6804 7.35181L28.0056 9.63753C28.3699 9.99574 28.4567 10.5245 28.2311 10.968ZM18.7745 17.4328L16.2758 14.9765L13.7772 17.4328C13.0831 18.1151 13.0831 19.2239 13.7772 19.9062L16.2758 22.3625L18.7745 19.9062C19.4685 19.2239 19.4685 18.1151 18.7745 17.4328Z" fill="#8759FF"/>
</svg>
